# Blender v2.93.5 OBJ File: ''
# www.blender.org
mtllib exit.mtl
o Body.002
v 0.500000 0.000000 -0.500000
v 0.375000 0.080000 -0.375000
v 0.500000 -0.000000 0.500000
v 0.375000 0.080000 0.375000
v -0.375000 0.080000 0.375000
v -0.375000 0.080000 -0.375000
v -0.500000 -0.000000 0.500000
v -0.500000 0.000000 -0.500000
vt 0.001072 0.001795
vt 0.125844 0.126568
vt 0.001072 0.999976
vt 0.125844 0.875203
vt 0.874480 0.875204
vt 0.874480 0.126568
vt 0.999253 0.999976
vt 0.999253 0.999976
vt 0.999253 1.998157
vt 0.001072 1.998157
vt 0.001072 0.999976
vt 0.999253 0.001795
vn 0.5391 0.8423 0.0000
vn 0.0000 1.0000 0.0000
vn 0.0000 0.8423 0.5391
vn 0.0000 -1.0000 -0.0000
vn -0.5391 0.8423 0.0000
vn 0.0000 0.8423 -0.5391
usemtl color_cccccc.002
s 1
f 1/1/1 2/2/1 3/3/1
f 3/3/1 2/2/1 4/4/1
f 5/5/2 4/4/2 6/6/2
f 4/4/2 2/2/2 6/6/2
f 4/4/3 7/7/3 3/3/3
f 1/8/4 3/9/4 7/10/4
f 1/8/4 7/10/4 8/11/4
f 6/6/5 8/12/5 7/7/5
f 6/6/5 7/7/5 5/5/5
f 6/6/6 1/1/6 8/12/6
f 4/4/3 5/5/3 7/7/3
f 6/6/6 2/2/6 1/1/6
