# Blender v2.93.1 OBJ File: ''
# www.blender.org
mtllib hi0.mtl
o Body
v 0.750000 2.000000 0.750000
v -0.750000 2.000000 -0.750000
v -0.750000 2.000000 0.750000
v 0.750000 2.000000 -0.750000
v -0.750000 0.000000 -0.750000
v -0.750000 -0.000000 0.750000
v 0.750000 0.000000 -0.750000
v 0.750000 -0.000000 0.750000
v -0.675000 0.075000 -0.750000
v 0.675000 0.075000 -0.750000
v -0.675000 1.825000 -0.750000
v -0.575000 1.925000 -0.750000
v 0.575000 1.925000 -0.750000
v 0.675000 1.825000 -0.750000
v -0.675000 0.075000 0.750000
v 0.675000 0.075000 0.750000
v -0.675000 1.825000 0.750000
v -0.575000 1.925000 0.750000
v 0.675000 1.825000 0.750000
v 0.575000 1.925000 0.750000
vt 0.000000 0.000000
vt 0.000000 0.000000
vt 0.000000 0.000000
vt 0.000000 0.000000
vt 0.000000 0.000000
vt 0.000000 0.000000
vt 0.000000 0.000000
vt 0.000000 0.000000
vt 0.000000 0.000000
vt 0.000000 0.000000
vt 0.000000 0.000000
vt 0.000000 0.000000
vt 0.000000 0.000000
vt 0.000000 0.000000
vt 0.000000 0.000000
vt 0.000000 0.000000
vt 0.000000 0.000000
vt 0.000000 0.000000
vt 0.000000 0.000000
vt 0.000000 0.000000
vt 0.225000 1.000000
vt 0.000000 1.000000
vt 0.225000 0.000000
vt 0.000000 1.000000
vt 0.225000 1.000000
vt 0.225000 0.000000
vt 0.000000 1.000000
vt 1.000000 0.000000
vt 1.000000 1.000000
vt 1.000000 0.000000
vt 1.000000 1.000000
vt 0.000000 1.000000
vn 0.0000 1.0000 0.0000
vn -1.0000 0.0000 0.0000
vn 1.0000 0.0000 0.0000
vn -0.0000 0.0000 -1.0000
vn 0.0000 -0.0000 1.0000
vn 0.0000 -1.0000 -0.0000
vn -0.7071 -0.7071 0.0000
vn 0.7071 -0.7071 0.0000
usemtl color_cccccc
s 1
f 1/1/1 2/2/1 3/3/1
f 4/4/1 2/2/1 1/1/1
f 2/2/2 5/5/2 6/6/2
f 2/2/2 6/6/2 3/3/2
f 7/7/3 4/4/3 1/1/3
f 7/7/3 1/1/3 8/8/3
f 7/7/4 9/9/4 10/10/4
f 7/7/4 5/5/4 9/9/4
f 11/11/4 9/9/4 5/5/4
f 2/2/4 11/11/4 5/5/4
f 12/12/4 11/11/4 2/2/4
f 13/13/4 12/12/4 2/2/4
f 4/4/4 14/14/4 13/13/4
f 4/4/4 13/13/4 2/2/4
f 4/4/4 7/7/4 10/10/4
f 4/4/4 10/10/4 14/14/4
f 15/15/5 8/8/5 16/16/5
f 6/6/5 8/8/5 15/15/5
f 15/15/5 17/17/5 6/6/5
f 17/17/5 3/3/5 6/6/5
f 17/17/5 18/18/5 3/3/5
f 19/19/5 1/1/5 20/20/5
f 20/20/5 1/1/5 18/18/5
f 18/18/5 1/1/5 3/3/5
f 8/8/5 1/1/5 16/16/5
f 16/16/5 1/1/5 19/19/5
f 6/6/6 7/7/6 8/8/6
f 5/5/6 7/7/6 6/6/6
f 20/20/6 18/18/6 12/12/6
f 20/20/6 12/12/6 13/13/6
f 15/15/1 16/16/1 10/10/1
f 15/15/1 10/10/1 9/9/1
usemtl Material.001
f 19/21/7 20/22/7 13/13/7
f 19/21/7 13/13/7 14/23/7
f 18/24/8 17/25/8 11/26/8
f 18/24/8 11/26/8 12/12/8
usemtl Material.002
f 16/27/2 19/19/2 14/28/2
f 16/27/2 14/28/2 10/29/2
f 17/30/3 15/31/3 9/32/3
f 17/30/3 9/32/3 11/11/3
