# Blender v2.93.5 OBJ File: ''
# www.blender.org
mtllib hx1.mtl
o Body.010
v 0.750000 1.925000 0.750000
v -0.575000 1.925000 0.750000
v -0.575000 1.925000 0.575000
v 0.750000 2.000000 0.750000
v 0.750000 1.925000 -0.750000
v 0.750000 2.000000 -0.750000
v 0.750000 0.075000 -0.750000
v 0.750000 -0.000000 0.750000
v 0.750000 0.000000 -0.750000
v -0.675000 0.075000 -0.750000
v -0.750000 2.000000 0.750000
v -0.750000 -0.000000 0.750000
v -0.675000 1.825000 0.750000
v -0.750000 0.000000 -0.750000
v -0.750000 2.000000 -0.750000
v -0.675000 1.825000 -0.750000
v -0.675000 0.075000 -0.675000
v -0.750000 0.075000 0.675000
v -0.675000 0.075000 0.675000
v -0.750000 1.825000 0.675000
v -0.750000 0.075000 -0.675000
v -0.750000 1.925000 -0.575000
v -0.575000 1.925000 -0.575000
v -0.675000 0.075000 0.750000
v 0.750000 0.075000 0.750000
v -0.750000 1.925000 0.575000
v -0.575000 1.925000 -0.750000
v -0.750000 1.825000 -0.675000
v -0.675000 1.825000 0.675000
v -0.675000 1.825000 -0.675000
vt 0.000000 0.000000
vt 0.000000 0.000000
vt 0.000000 0.000000
vt 0.000000 0.000000
vt 0.000000 0.000000
vt 0.000000 0.000000
vt 0.000000 0.000000
vt 0.000000 0.000000
vt 0.000000 0.000000
vt 0.000000 0.000000
vt 0.000000 0.000000
vt 0.000000 0.000000
vt 0.000000 0.000000
vt 0.000000 0.000000
vt 0.000000 0.000000
vt 0.000000 0.000000
vt 0.000000 0.000000
vt 0.000000 0.000000
vt 0.000000 0.000000
vt 0.000000 0.000000
vt 0.000000 0.000000
vt 0.000000 0.000000
vt 0.000000 0.000000
vt 0.000000 0.000000
vt 0.000000 0.000000
vt 0.000000 0.000000
vt 0.000000 0.000000
vt 0.000000 0.000000
vt 0.082123 0.957287
vt 0.121463 0.000000
vt 0.121463 1.000000
vt 0.225000 0.785714
vt 0.000000 0.500000
vt 0.000000 1.000000
vt 0.225000 1.000000
vt 0.225000 0.786486
vt 0.225000 1.000995
vt 0.000000 1.000000
vt 0.000000 0.500000
vt 0.000000 0.500000
vt 0.225000 0.285714
vt 0.225000 0.285714
vt 0.000000 0.500000
vt 0.225000 0.500000
vt 0.225000 0.500000
vt 0.999404 1.000000
vt 0.950404 0.000000
vt 0.999404 0.000000
vt 0.049000 1.000000
vt 0.000000 1.000000
vt 1.000064 1.000000
vt 0.951064 1.000000
vt 0.951064 0.000000
vt 1.000064 0.000000
vt 0.049000 0.000000
vt 0.049000 1.000000
vt 0.000000 1.000000
vt 0.049000 0.000000
vt 0.950404 1.000000
vn 0.0000 -1.0000 0.0000
vn 1.0000 0.0000 0.0000
vn 0.0000 0.0000 -1.0000
vn -0.0000 -0.0000 1.0000
vn 0.0000 1.0000 0.0000
vn -1.0000 -0.0000 0.0000
vn 0.7071 -0.7071 0.0000
vn 0.0000 -0.7071 -0.7071
vn 0.0000 -0.7071 0.7071
usemtl color_cccccc.008
s 1
f 1/1/1 2/2/1 3/3/1
f 4/4/2 5/5/2 6/6/2
f 7/7/2 8/8/2 9/9/2
f 10/10/3 7/7/3 9/9/3
f 11/11/4 12/12/4 13/13/4
f 14/14/3 15/15/3 16/16/3
f 7/7/5 10/10/5 17/17/5
f 17/17/5 18/18/5 19/19/5
f 12/12/6 20/20/6 18/18/6
f 12/12/6 18/18/6 21/21/6
f 3/3/1 22/22/1 23/23/1
f 12/12/4 24/24/4 13/13/4
f 13/13/4 2/2/4 11/11/4
f 20/20/6 12/12/6 11/11/6
f 19/19/5 24/24/5 25/25/5
f 10/10/3 9/9/3 14/14/3
f 25/25/5 7/7/5 17/17/5
f 7/7/2 25/25/2 8/8/2
f 5/5/1 1/1/1 23/23/1
f 3/3/1 26/26/1 22/22/1
f 15/15/3 27/27/3 16/16/3
f 9/9/1 12/12/1 14/14/1
f 4/4/4 11/11/4 2/2/4
f 26/26/6 20/20/6 11/11/6
f 26/26/6 11/11/6 15/15/6
f 15/15/5 11/11/5 4/4/5
f 15/15/5 4/4/5 6/6/5
f 1/1/1 3/3/1 23/23/1
f 27/27/1 5/5/1 23/23/1
f 1/1/4 4/4/4 2/2/4
f 14/14/6 12/12/6 21/21/6
f 28/28/6 15/15/6 14/14/6
f 15/15/6 28/28/6 22/22/6
f 9/9/1 8/8/1 12/12/1
f 4/4/2 1/1/2 5/5/2
f 16/16/3 10/10/3 14/14/3
f 15/15/3 6/6/3 27/27/3
f 15/15/6 22/22/6 26/26/6
f 19/19/5 25/25/5 17/17/5
f 12/12/4 8/8/4 24/24/4
f 17/17/5 21/21/5 18/18/5
f 6/6/3 5/5/3 27/27/3
f 8/8/4 25/25/4 24/24/4
f 21/29/6 28/30/6 14/31/6
usemtl Material.015
f 29/32/7 3/33/7 2/34/7
f 29/32/7 2/34/7 13/35/7
f 30/36/7 16/37/7 27/38/7
f 30/36/7 27/38/7 23/39/7
f 26/40/8 3/3/8 29/41/8
f 30/42/9 23/23/9 22/43/9
f 26/40/8 29/41/8 20/44/8
f 30/42/9 22/43/9 28/45/9
usemtl Material.016
f 21/46/4 30/47/4 28/48/4
f 17/49/2 10/50/2 16/16/2
f 24/51/2 19/52/2 29/53/2
f 24/51/2 29/53/2 13/54/2
f 17/49/2 16/16/2 30/55/2
f 20/20/3 19/56/3 18/57/3
f 20/20/3 29/58/3 19/56/3
f 21/46/4 17/59/4 30/47/4
