# Blender v2.93.1 OBJ File: ''
# www.blender.org
mtllib hl0.mtl
o Body.001
v -0.750000 2.000000 0.750000
v -0.750000 0.000000 -0.750000
v -0.750000 -0.000000 0.750000
v 0.750000 0.000000 -0.750000
v 0.750000 -0.000000 0.750000
v -0.675000 0.075000 0.750000
v 0.575000 1.925000 0.750000
v 0.675000 1.825000 0.750000
v 0.750000 2.000000 0.750000
v 0.750000 0.075000 -0.675000
v 0.750000 0.075000 0.675000
v -0.675000 1.825000 0.750000
v -0.575000 1.925000 0.750000
v -0.575000 1.925000 -0.575000
v 0.575000 1.925000 0.575000
v 0.750000 1.925000 -0.575000
v 0.750000 1.825000 -0.675000
v 0.750000 2.000000 -0.750000
v -0.750000 2.000000 -0.750000
v 0.750000 1.825000 0.675000
v 0.750000 1.925000 0.575000
v -0.675000 0.075000 -0.675000
v 0.675000 0.075000 0.675000
v 0.675000 0.075000 0.750000
v -0.675000 1.825000 -0.675000
v 0.675000 1.825000 0.675000
vt 0.000000 0.000000
vt 0.000000 0.000000
vt 0.000000 0.000000
vt 0.000000 0.000000
vt 0.000000 0.000000
vt 0.000000 0.000000
vt 0.000000 0.000000
vt 0.000000 0.000000
vt 0.000000 0.000000
vt 0.000000 0.000000
vt 0.000000 0.000000
vt 0.000000 0.000000
vt 0.000000 0.000000
vt 0.000000 0.000000
vt 0.000000 0.000000
vt 0.000000 0.000000
vt 0.000000 0.000000
vt 0.000000 0.000000
vt 0.000000 0.000000
vt 0.000000 0.000000
vt 0.000000 0.000000
vt 0.000000 0.000000
vt 0.000000 0.000000
vt 0.000000 0.000000
vt 0.049000 1.000000
vt 0.049000 0.000000
vt 1.000000 -0.000000
vt 0.999595 1.000000
vt 0.950595 0.000000
vt 0.999595 0.000000
vt 0.048951 1.000000
vt -0.000049 1.000000
vt 0.048951 0.000000
vt 0.951000 1.000000
vt -0.000000 1.000000
vt 0.951000 0.000000
vt 0.950595 1.000000
vt 1.000000 1.000000
vt 0.000000 1.000000
vt 0.225000 0.000000
vt 0.000000 1.000000
vt 0.225000 1.000000
vt 0.225000 1.000000
vt 0.000000 1.000000
vt 0.225000 1.000000
vt 0.225000 0.000000
vt 0.000000 1.000000
vt 0.225000 1.000000
vn -1.0000 -0.0000 0.0000
vn 0.0000 -1.0000 -0.0000
vn -0.0000 -0.0000 1.0000
vn 1.0000 -0.0000 0.0000
vn 0.0000 0.0000 -1.0000
vn 0.0000 1.0000 0.0000
vn -0.7071 -0.7071 0.0000
vn 0.0000 -0.7071 -0.7071
vn 0.0000 -0.7071 0.7071
vn 0.7071 -0.7071 0.0000
usemtl Default_OBJ
s 1
f 1/1/1 2/2/1 3/3/1
f 4/4/2 3/3/2 2/2/2
f 3/3/3 5/5/3 6/6/3
f 7/7/3 8/8/3 9/9/3
f 10/10/4 11/11/4 4/4/4
f 12/12/3 1/1/3 3/3/3
f 9/9/3 1/1/3 7/7/3
f 12/12/3 13/13/3 1/1/3
f 13/13/2 14/14/2 15/15/2
f 16/16/4 17/17/4 18/18/4
f 11/11/4 5/5/4 4/4/4
f 19/19/5 18/18/5 4/4/5
f 9/9/4 20/20/4 21/21/4
f 4/4/4 18/18/4 17/17/4
f 10/10/6 22/22/6 23/23/6
f 19/19/6 1/1/6 9/9/6
f 6/6/3 12/12/3 3/3/3
f 16/16/2 21/21/2 15/15/2
f 22/22/6 6/6/6 23/23/6
f 23/23/6 11/11/6 10/10/6
f 6/6/6 24/24/6 23/23/6
f 19/19/5 4/4/5 2/2/5
f 1/1/1 19/19/1 2/2/1
f 4/4/2 5/5/2 3/3/2
f 9/9/4 5/5/4 20/20/4
f 18/18/4 9/9/4 16/16/4
f 1/1/3 13/13/3 7/7/3
f 5/5/3 24/24/3 6/6/3
f 7/7/2 13/13/2 15/15/2
f 5/5/3 9/9/3 8/8/3
f 9/9/4 21/21/4 16/16/4
f 19/19/6 9/9/6 18/18/6
f 11/11/4 20/20/4 5/5/4
f 5/5/3 8/8/3 24/24/3
f 14/14/2 16/16/2 15/15/2
f 10/10/4 4/4/4 17/17/4
usemtl Material.001
f 22/25/4 25/26/4 12/27/4
f 11/28/5 26/29/5 20/30/5
f 8/8/1 23/31/1 24/32/1
f 8/8/1 26/33/1 23/31/1
f 17/17/3 22/34/3 10/35/3
f 17/17/3 25/36/3 22/34/3
f 11/28/5 23/37/5 26/29/5
f 22/25/4 12/27/4 6/38/4
usemtl Material.002
f 7/39/7 15/15/7 26/40/7
f 26/40/8 15/15/8 21/41/8
f 26/40/8 21/41/8 20/42/8
f 14/14/9 17/43/9 16/44/9
f 12/45/10 25/46/10 14/14/10
f 12/45/10 14/14/10 13/47/10
f 7/39/7 26/40/7 8/48/7
f 14/14/9 25/46/9 17/43/9
