# Blender v2.93.5 OBJ File: ''
# www.blender.org
mtllib ht1.mtl
o Body.013
v 0.750000 2.000000 0.750000
v -0.750000 2.000000 -0.750000
v -0.750000 2.000000 0.750000
v 0.750000 2.000000 -0.750000
v -0.750000 0.000000 -0.750000
v -0.750000 -0.000000 0.750000
v -0.750000 0.075000 0.675000
v -0.750000 0.075000 -0.750000
v -0.750000 1.825000 0.675000
v -0.750000 1.925000 0.575000
v -0.750000 1.925000 -0.750000
v 0.750000 0.000000 -0.750000
v 0.750000 -0.000000 0.750000
v 0.675000 0.075000 -0.750000
v 0.675000 1.825000 -0.750000
v 0.575000 1.925000 -0.750000
v 0.675000 0.075000 0.750000
v -0.675000 0.075000 0.750000
v -0.675000 1.825000 0.750000
v -0.575000 1.925000 0.750000
v 0.675000 1.825000 0.750000
v 0.575000 1.925000 0.750000
v -0.675000 0.075000 0.675000
v -0.575000 1.925000 0.575000
v -0.675000 1.825000 0.675000
vt 0.000000 0.000000
vt 0.000000 0.000000
vt 0.000000 0.000000
vt 0.000000 0.000000
vt 0.000000 0.000000
vt 0.000000 0.000000
vt 0.000000 0.000000
vt 0.000000 0.000000
vt 0.000000 0.000000
vt 0.000000 0.000000
vt 0.000000 0.000000
vt 0.000000 0.000000
vt 0.000000 0.000000
vt 0.000000 0.000000
vt 0.000000 0.000000
vt 0.000000 0.000000
vt 0.000000 0.000000
vt 0.000000 0.000000
vt 0.000000 0.000000
vt 0.000000 0.000000
vt 0.000000 0.000000
vt 0.000000 0.000000
vt 0.000000 0.000000
vt 0.000000 0.000000
vt 1.000000 1.000000
vt 1.000000 0.000000
vt 0.044783 0.000000
vt 0.053216 1.000000
vt 0.000000 1.000000
vt 0.000000 1.000000
vt 0.098000 1.000000
vt 0.098000 0.000000
vt 0.000000 1.000000
vt 0.225000 0.000000
vt 0.225000 1.000000
vt 0.225000 1.000000
vt 0.225000 0.000000
vt 0.000000 1.000000
vt 0.225000 0.000000
vt 0.000000 1.000000
vt 0.225000 1.000000
vn -1.0000 0.0000 0.0000
vn -0.0000 -0.0000 1.0000
vn 1.0000 -0.0000 0.0000
vn 0.0000 0.0000 -1.0000
vn 0.0000 1.0000 0.0000
vn 0.0000 -1.0000 -0.0000
vn 0.0000 -0.7071 -0.7071
vn 0.7071 -0.7071 0.0000
vn -0.7071 -0.7071 0.0000
usemtl outside.003
s 1
f 9/1/1 6/2/1 3/3/1
f 3/3/2 20/4/2 22/5/2
f 13/6/3 4/7/3 1/8/3
f 3/3/1 10/9/1 9/1/1
f 9/1/1 7/10/1 6/2/1
f 4/7/4 12/11/4 15/12/4
f 2/13/5 1/8/5 4/7/5
f 12/11/6 13/6/6 6/2/6
f 12/11/4 14/14/4 15/12/4
f 13/6/3 12/11/3 4/7/3
f 13/6/2 18/15/2 6/2/2
f 21/16/2 17/17/2 1/8/2
f 13/6/2 17/17/2 18/15/2
f 3/3/2 6/2/2 19/18/2
f 16/19/6 22/5/6 24/20/6
f 7/10/1 5/21/1 6/2/1
f 22/5/2 21/16/2 1/8/2
f 18/15/2 19/18/2 6/2/2
f 12/11/6 6/2/6 5/21/6
f 3/3/2 19/18/2 20/4/2
f 24/20/6 10/9/6 11/22/6
f 16/19/4 11/22/4 2/13/4
f 15/12/4 16/19/4 4/7/4
f 17/17/5 14/14/5 23/23/5
f 16/19/4 2/13/4 4/7/4
f 5/21/4 8/24/4 14/14/4
f 22/5/2 1/8/2 3/3/2
f 7/10/1 8/24/1 5/21/1
f 3/3/1 2/13/1 10/9/1
f 2/13/1 11/22/1 10/9/1
f 23/23/5 18/15/5 17/17/5
f 11/22/6 16/19/6 24/20/6
f 13/6/2 1/8/2 17/17/2
f 22/5/6 20/4/6 24/20/6
f 14/14/5 8/24/5 23/23/5
f 8/24/5 7/10/5 23/23/5
f 2/13/5 3/3/5 1/8/5
f 12/11/4 5/21/4 14/14/4
usemtl wall.003
f 14/25/1 21/16/1 15/26/1
f 25/27/4 23/28/4 7/29/4
f 14/25/1 17/30/1 21/16/1
f 18/31/3 25/27/3 19/32/3
f 25/27/4 7/29/4 9/1/4
f 18/31/3 23/28/3 25/27/3
usemtl bar.003
f 10/33/7 25/34/7 9/35/7
f 25/36/8 20/4/8 19/37/8
f 10/33/7 24/20/7 25/34/7
f 25/36/8 24/38/8 20/4/8
f 15/39/9 22/40/9 16/19/9
f 15/39/9 21/41/9 22/40/9
