# Blender v2.93.5 OBJ File: ''
# www.blender.org
mtllib ht2.mtl
o Body.012
v 0.750000 2.000000 0.750000
v -0.750000 2.000000 -0.750000
v -0.750000 2.000000 0.750000
v 0.750000 2.000000 -0.750000
v -0.750000 0.000000 -0.750000
v -0.750000 -0.000000 0.750000
v -0.750000 0.075000 -0.675000
v -0.750000 1.825000 -0.675000
v -0.750000 1.925000 -0.575000
v 0.750000 0.000000 -0.750000
v 0.750000 -0.000000 0.750000
v -0.675000 0.075000 -0.750000
v 0.675000 0.075000 -0.750000
v -0.675000 1.825000 -0.750000
v -0.575000 1.925000 -0.750000
v 0.675000 1.825000 -0.750000
v 0.575000 1.925000 -0.750000
v 0.675000 0.075000 0.750000
v -0.750000 0.075000 0.750000
v -0.750000 1.925000 0.750000
v 0.675000 1.825000 0.750000
v 0.575000 1.925000 0.750000
v -0.675000 0.075000 -0.675000
v -0.575000 1.925000 -0.575000
v -0.675000 1.825000 -0.675000
vt 0.000000 0.000000
vt 0.000000 0.000000
vt 0.000000 0.000000
vt 0.000000 0.000000
vt 0.000000 0.000000
vt 0.000000 0.000000
vt 0.000000 0.000000
vt 0.000000 0.000000
vt 0.000000 0.000000
vt 0.000000 0.000000
vt 0.000000 0.000000
vt 0.000000 0.000000
vt 0.000000 0.000000
vt 0.000000 0.000000
vt 0.000000 0.000000
vt 0.000000 0.000000
vt 0.000000 0.000000
vt 0.000000 0.000000
vt 0.000000 0.000000
vt 0.000000 0.000000
vt 0.000000 0.000000
vt 0.000000 0.000000
vt 0.000000 0.000000
vt 0.000000 0.000000
vt 0.098000 1.000000
vt 0.049000 0.000000
vt 0.098000 0.000000
vt 0.049000 1.000000
vt 0.000000 1.000000
vt 1.000000 1.000000
vt 0.000000 1.000000
vt 1.000000 0.000000
vt 0.225000 1.000000
vt 0.225000 0.000000
vt 0.000000 1.000000
vt 0.225000 0.000000
vt 0.225000 0.000000
vt 0.225000 1.000000
vt 0.000000 1.000000
vn -0.0000 -0.0000 1.0000
vn 0.0000 -1.0000 0.0000
vn 0.0000 0.0000 -1.0000
vn 1.0000 -0.0000 0.0000
vn -1.0000 0.0000 0.0000
vn 0.0000 1.0000 0.0000
vn 0.7071 -0.7071 0.0000
vn 0.0000 -0.7071 0.7071
vn -0.7071 -0.7071 0.0000
usemtl outside
s 1
f 1/1/1 3/2/1 22/3/1
f 24/4/2 15/5/2 17/6/2
f 4/7/3 16/8/3 17/6/3
f 11/9/4 10/10/4 4/7/4
f 8/11/5 9/12/5 2/13/5
f 2/13/6 1/1/6 4/7/6
f 10/10/2 11/9/2 6/14/2
f 3/2/1 20/15/1 22/3/1
f 10/10/3 5/16/3 13/17/3
f 15/5/3 14/18/3 2/13/3
f 19/19/1 6/14/1 18/20/1
f 13/17/6 12/21/6 23/22/6
f 2/13/5 5/16/5 8/11/5
f 5/16/3 14/18/3 12/21/3
f 1/1/1 22/3/1 21/23/1
f 10/10/2 6/14/2 5/16/2
f 11/9/4 4/7/4 1/1/4
f 2/13/6 3/2/6 1/1/6
f 11/9/1 1/1/1 21/23/1
f 4/7/3 17/6/3 15/5/3
f 15/5/3 2/13/3 4/7/3
f 19/19/6 18/20/6 23/22/6
f 3/2/5 2/13/5 9/12/5
f 23/22/6 7/24/6 19/19/6
f 4/7/3 13/17/3 16/8/3
f 24/4/2 17/6/2 22/3/2
f 5/16/3 12/21/3 13/17/3
f 6/14/1 11/9/1 18/20/1
f 20/15/2 9/12/2 24/4/2
f 13/17/3 4/7/3 10/10/3
f 5/16/5 7/24/5 8/11/5
f 20/15/5 3/2/5 9/12/5
f 5/16/5 6/14/5 7/24/5
f 6/14/5 19/19/5 7/24/5
f 18/20/6 13/17/6 23/22/6
f 21/23/1 18/20/1 11/9/1
f 14/18/3 5/16/3 2/13/3
f 22/3/2 20/15/2 24/4/2
usemtl wall
f 7/25/1 25/26/1 8/27/1
f 23/28/4 12/29/4 14/18/4
f 13/30/5 18/31/5 21/23/5
f 7/25/1 23/28/1 25/26/1
f 23/28/4 14/18/4 25/26/4
f 13/30/5 21/23/5 16/32/5
usemtl bar
f 25/33/7 14/34/7 15/5/7
f 25/33/8 24/35/8 9/12/8
f 25/33/8 9/12/8 8/36/8
f 16/37/9 21/38/9 22/39/9
f 25/33/7 15/5/7 24/35/7
f 16/37/9 22/39/9 17/6/9
