# Blender v2.93.5 OBJ File: ''
# www.blender.org
mtllib hx2.mtl
o Body.010
v 0.750000 1.925000 0.750000
v -0.575000 1.925000 0.750000
v -0.575000 1.925000 0.575000
v 0.750000 2.000000 0.750000
v 0.750000 1.925000 -0.750000
v 0.750000 2.000000 -0.750000
v 0.750000 0.075000 -0.750000
v 0.750000 -0.000000 0.750000
v 0.750000 0.000000 -0.750000
v -0.750000 2.000000 0.750000
v -0.750000 -0.000000 0.750000
v -0.675000 1.825000 0.750000
v -0.750000 0.000000 -0.750000
v -0.750000 2.000000 -0.750000
v -0.750000 0.075000 0.675000
v -0.675000 0.075000 0.675000
v -0.750000 1.825000 0.675000
v -0.750000 0.075000 -0.750000
v -0.750000 1.925000 -0.750000
v -0.675000 0.075000 0.750000
v 0.750000 0.075000 0.750000
v -0.750000 1.925000 0.575000
v -0.675000 1.825000 0.675000
vt 0.000000 0.000000
vt 0.000000 0.000000
vt 0.000000 0.000000
vt 0.000000 0.000000
vt 0.000000 0.000000
vt 0.000000 0.000000
vt 0.000000 0.000000
vt 0.000000 0.000000
vt 0.000000 0.000000
vt 0.000000 0.000000
vt 0.000000 0.000000
vt 0.000000 0.000000
vt 0.000000 0.000000
vt 0.000000 0.000000
vt 0.000000 0.000000
vt 0.000000 0.000000
vt 0.000000 0.000000
vt 0.000000 0.000000
vt 0.000000 0.000000
vt 0.000000 0.000000
vt 0.000000 0.000000
vt 0.000000 0.000000
vt 0.000000 1.000000
vt 0.225000 0.785714
vt 0.000000 0.500000
vt 0.225000 0.285714
vt 0.225000 0.500000
vt 0.000000 0.500000
vt 0.225000 1.000000
vt 0.049000 0.000000
vt 0.000000 1.000000
vt 1.000064 0.000000
vt 1.000064 1.000000
vt 0.951064 1.000000
vt 0.049000 1.000000
vt 0.951064 0.000000
vn 0.0000 -1.0000 0.0000
vn 0.0000 1.0000 0.0000
vn -1.0000 0.0000 0.0000
vn 1.0000 0.0000 0.0000
vn -0.0000 -0.0000 1.0000
vn 0.0000 0.0000 -1.0000
vn 0.7071 -0.7071 0.0000
vn 0.0000 -0.7071 -0.7071
usemtl color_cccccc.008
s 1
f 19/1/1 5/2/1 3/3/1
f 5/2/1 1/4/1 3/3/1
f 6/5/2 10/6/2 4/7/2
f 1/4/1 2/8/1 3/3/1
f 13/9/3 11/10/3 15/11/3
f 1/4/4 5/2/4 6/5/4
f 11/10/3 10/6/3 17/12/3
f 11/10/5 8/13/5 20/14/5
f 5/2/6 19/1/6 14/15/6
f 10/6/5 11/10/5 12/16/5
f 21/17/2 7/18/2 16/19/2
f 12/16/5 2/8/5 10/6/5
f 5/2/6 14/15/6 6/5/6
f 20/14/2 21/17/2 16/19/2
f 8/13/1 11/10/1 13/9/1
f 2/8/5 1/4/5 4/7/5
f 7/18/2 18/20/2 16/19/2
f 8/13/1 13/9/1 9/21/1
f 13/9/6 18/20/6 7/18/6
f 21/17/4 8/13/4 9/21/4
f 13/9/6 7/18/6 9/21/6
f 2/8/5 4/7/5 10/6/5
f 14/15/3 19/1/3 22/22/3
f 18/20/2 15/11/2 16/19/2
f 10/6/3 22/22/3 17/12/3
f 17/12/3 15/11/3 11/10/3
f 8/13/5 21/17/5 20/14/5
f 1/4/4 6/5/4 4/7/4
f 11/10/5 20/14/5 12/16/5
f 21/17/4 9/21/4 7/18/4
f 6/5/2 14/15/2 10/6/2
f 3/3/1 22/22/1 19/1/1
f 18/20/3 13/9/3 15/11/3
f 10/6/3 14/15/3 22/22/3
usemtl Material.015
f 2/23/7 23/24/7 3/25/7
f 23/26/8 17/27/8 22/28/8
f 23/26/8 22/28/8 3/3/8
f 2/23/7 12/29/7 23/24/7
usemtl Material.016
f 23/30/6 15/31/6 17/12/6
f 12/32/4 20/33/4 16/34/4
f 23/30/6 16/35/6 15/31/6
f 12/32/4 16/34/4 23/36/4
