# Blender v2.93.5 OBJ File: ''
# www.blender.org
mtllib hx4.mtl
o Body.001
v 0.750000 2.000000 0.750000
v -0.750000 2.000000 -0.750000
v -0.750000 2.000000 0.750000
v 0.750000 2.000000 -0.750000
v -0.750000 0.000000 -0.750000
v -0.750000 -0.000000 0.750000
v -0.750000 0.075000 0.750000
v -0.750000 0.075000 -0.675000
v -0.750000 1.825000 -0.675000
v -0.750000 1.925000 -0.575000
v 0.750000 1.925000 0.575000
v 0.750000 1.825000 0.675000
v 0.750000 1.925000 -0.575000
v 0.750000 1.825000 -0.675000
v 0.750000 -0.000000 0.750000
v 0.750000 0.075000 0.675000
v 0.750000 0.075000 -0.675000
v 0.750000 0.000000 -0.750000
v -0.675000 0.075000 -0.750000
v 0.675000 0.075000 -0.750000
v -0.675000 1.825000 -0.750000
v -0.575000 1.925000 -0.750000
v 0.675000 1.825000 -0.750000
v 0.575000 1.925000 -0.750000
v 0.675000 0.075000 0.750000
v -0.750000 1.925000 0.750000
v 0.675000 1.825000 0.750000
v 0.575000 1.925000 0.750000
v -0.675000 0.075000 -0.675000
v -0.575000 1.925000 -0.575000
v 0.575000 1.925000 -0.575000
v 0.575000 1.925000 0.575000
v 0.675000 0.075000 -0.675000
v 0.675000 0.075000 0.675000
v -0.675000 1.825000 -0.675000
v 0.675000 1.825000 -0.675000
v 0.675000 1.825000 0.675000
vt 0.000000 0.000000
vt 0.000000 0.000000
vt 0.000000 0.000000
vt 0.000000 0.000000
vt 0.000000 0.000000
vt 0.000000 0.000000
vt 0.000000 0.000000
vt 0.000000 0.000000
vt 0.000000 0.000000
vt 0.000000 0.000000
vt 0.000000 0.000000
vt 0.000000 0.000000
vt 0.000000 0.000000
vt 0.000000 0.000000
vt 0.000000 0.000000
vt 0.000000 0.000000
vt 0.000000 0.000000
vt 0.000000 0.000000
vt 0.000000 0.000000
vt 0.000000 0.000000
vt 0.000000 0.000000
vt 0.000000 0.000000
vt 0.000000 0.000000
vt 0.000000 0.000000
vt 0.000000 0.000000
vt 0.000000 0.000000
vt 0.000000 0.000000
vt 0.000000 0.000000
vt 0.000000 0.000000
vt 0.000000 0.000000
vt 0.000000 0.000000
vt 0.000000 0.000000
vt 0.000000 0.000000
vt 0.000000 0.000000
vt 0.098000 1.000000
vt 0.049000 1.000000
vt 0.049000 0.000000
vt 0.049000 1.000000
vt 0.049000 0.000000
vt -0.000000 1.000000
vt 0.147000 1.000000
vt 0.098000 1.000000
vt 0.098000 0.000000
vt 0.049000 0.000000
vt 0.098000 0.000000
vt 0.098000 1.000000
vt 0.098000 1.000000
vt 0.147000 1.000000
vt 0.098000 0.000012
vt 0.147000 0.000000
vt 0.098000 -0.000000
vt 0.098000 0.000000
vt 0.049000 1.000000
vt 0.147000 0.000000
vt 0.098000 1.000010
vt 0.225000 0.000000
vt 0.225000 1.000000
vt 0.000000 1.000000
vt 0.000000 1.000000
vt 0.225000 0.000000
vt 0.225000 1.000000
vt 0.000000 1.000000
vt 0.225000 0.000000
vt 0.000000 1.000000
vt 0.225000 0.000000
vt 0.225000 1.000000
vt 0.000000 1.000000
vt 0.225000 1.000000
vt 0.225000 0.000000
vt 0.225000 1.000000
vt 0.225000 1.000000
vt 0.225000 0.000000
vt 0.000000 1.000000
vn 0.0000 1.0000 0.0000
vn 0.0000 -1.0000 0.0000
vn -1.0000 0.0000 0.0000
vn 0.0000 0.0000 1.0000
vn 1.0000 -0.0000 0.0000
vn -0.0000 0.0000 -1.0000
vn 0.0000 -0.7071 0.7071
vn -0.7071 -0.7071 0.0000
vn 0.0000 -0.7071 -0.7071
vn 0.7071 -0.7071 0.0000
usemtl outside.002
s 1
f 7/1/1 34/2/1 29/3/1
f 31/4/2 13/5/2 11/6/2
f 10/7/3 26/8/3 3/9/3
f 34/2/1 17/10/1 33/11/1
f 6/12/3 7/1/3 8/13/3
f 30/14/2 22/15/2 31/4/2
f 6/12/4 15/16/4 25/17/4
f 33/11/1 20/18/1 19/19/1
f 15/16/5 17/10/5 16/20/5
f 21/21/6 2/22/6 22/15/6
f 27/23/4 25/17/4 15/16/4
f 31/4/2 11/6/2 32/24/2
f 2/22/3 5/25/3 9/26/3
f 1/27/4 28/28/4 27/23/4
f 34/2/1 16/20/1 17/10/1
f 7/1/1 25/17/1 34/2/1
f 9/26/3 10/7/3 2/22/3
f 15/16/4 1/27/4 27/23/4
f 21/21/6 5/25/6 2/22/6
f 18/29/2 15/16/2 6/12/2
f 29/3/1 8/13/1 7/1/1
f 4/30/5 1/27/5 13/5/5
f 2/22/6 4/30/6 22/15/6
f 7/1/4 6/12/4 25/17/4
f 33/11/1 19/19/1 29/3/1
f 23/31/6 18/29/6 20/18/6
f 1/27/4 3/9/4 28/28/4
f 5/25/3 6/12/3 8/13/3
f 21/21/6 19/19/6 5/25/6
f 32/24/2 28/28/2 26/8/2
f 23/31/6 4/30/6 18/29/6
f 34/2/1 33/11/1 29/3/1
f 4/30/5 13/5/5 14/32/5
f 22/15/2 24/33/2 31/4/2
f 31/4/2 32/24/2 30/14/2
f 26/8/2 10/7/2 30/14/2
f 18/29/2 6/12/2 5/25/2
f 2/22/1 1/27/1 4/30/1
f 19/19/6 20/18/6 18/29/6
f 19/19/6 18/29/6 5/25/6
f 4/30/6 23/31/6 24/33/6
f 4/30/6 24/33/6 22/15/6
f 12/34/5 1/27/5 15/16/5
f 15/16/5 18/29/5 17/10/5
f 16/20/5 12/34/5 15/16/5
f 5/25/3 8/13/3 9/26/3
f 10/7/3 3/9/3 2/22/3
f 32/24/2 26/8/2 30/14/2
f 1/27/5 11/6/5 13/5/5
f 17/10/5 18/29/5 14/32/5
f 1/27/5 12/34/5 11/6/5
f 2/22/1 3/9/1 1/27/1
f 3/9/4 26/8/4 28/28/4
f 18/29/5 4/30/5 14/32/5
usemtl wall.002
f 8/35/4 29/36/4 35/37/4
f 33/38/4 14/32/4 36/39/4
f 33/38/4 17/40/4 14/32/4
f 34/41/3 25/42/3 27/43/3
f 37/44/6 12/45/6 16/46/6
f 20/47/3 33/38/3 36/39/3
f 29/48/5 21/49/5 35/50/5
f 20/47/3 36/39/3 23/51/3
f 8/35/4 35/37/4 9/52/4
f 37/44/6 16/46/6 34/53/6
f 34/41/3 27/43/3 37/54/3
f 29/48/5 19/55/5 21/49/5
usemtl bar.002
f 36/56/7 14/57/7 13/58/7
f 28/59/8 32/24/8 37/60/8
f 11/6/9 37/61/9 32/62/9
f 36/56/7 13/58/7 31/4/7
f 35/63/10 22/64/10 30/14/10
f 11/6/9 12/65/9 37/61/9
f 24/33/8 36/66/8 31/67/8
f 35/63/10 21/68/10 22/64/10
f 24/33/8 23/69/8 36/66/8
f 28/59/8 37/60/8 27/70/8
f 35/71/7 10/7/7 9/72/7
f 35/71/7 30/73/7 10/7/7
