# Blender v2.93.1 OBJ File: ''
# www.blender.org
mtllib panel_new.mtl
o Body
v 0.240000 0.000000 -0.750000
v 0.240000 0.637600 -0.750000
v 0.240000 -0.000000 0.750000
v 0.240000 0.637600 0.750000
v 0.021600 0.800000 -0.750000
v 0.025929 0.798571 -0.750000
v 0.000000 0.800000 -0.750000
v 0.238071 0.641429 -0.750000
v 0.000000 0.000000 -0.750000
v 0.238071 0.641429 0.750000
v 0.000000 -0.000000 0.750000
v 0.025929 0.798571 0.750000
v 0.021600 0.800000 0.750000
v 0.000000 0.800000 0.750000
v 0.000000 -0.000000 0.750000
v 0.240000 -0.000000 0.750000
v 0.238071 0.641429 0.650000
v 0.025929 0.798571 0.650000
v 0.238071 0.641429 0.075000
v 0.025929 0.798571 0.075000
v 0.238071 0.641429 -0.075000
v 0.025929 0.798571 -0.075000
v 0.238071 0.641429 -0.650000
v 0.025929 0.798571 -0.650000
vt 0.000000 0.000000
vt 0.000000 0.000000
vt 0.000000 0.000000
vt 0.000000 0.000000
vt 0.000000 0.000000
vt 0.000000 0.000000
vt 0.000000 0.000000
vt 0.000000 0.000000
vt 0.000000 0.000000
vt 0.000000 0.000000
vt 0.000000 0.000000
vt 0.000000 0.000000
vt 0.000000 0.000000
vt 0.000000 0.000000
vt 0.000000 0.000000
vt 0.000000 0.000000
vt 0.000000 0.000000
vt 0.000000 0.000000
vt 0.000000 0.000000
vt 0.000000 0.000000
vt 0.000000 0.000000
vt 0.000000 0.000000
vt 0.000000 0.000000
vt 0.000000 0.000000
vt 1.000000 0.000000
vt 0.000000 0.500000
vt -0.000438 0.999561
vt 1.000000 0.500000
vt 1.000000 1.000000
vt 1.000000 0.500000
vt -0.000000 0.500000
vn 1.0000 0.0000 0.0000
vn 0.0000 0.0000 -1.0000
vn 0.8931 0.4499 0.0000
vn 0.0000 -1.0000 -0.0000
vn 0.0000 0.0000 1.0000
vn -1.0000 0.0000 0.0000
vn 0.3135 0.9496 0.0000
vn -0.0000 1.0000 0.0000
vn 0.5952 0.8036 0.0000
usemtl color_cccccc
s 1
f 1/1/1 2/2/1 3/3/1
f 3/3/1 2/2/1 4/4/1
f 5/5/2 6/6/2 7/7/2
f 6/6/2 8/8/2 7/7/2
f 8/8/2 2/2/2 7/7/2
f 2/2/2 9/9/2 7/7/2
f 2/2/2 1/1/2 9/9/2
f 8/8/3 10/10/3 2/2/3
f 2/2/3 10/10/3 4/4/3
f 9/9/4 1/1/4 11/11/4
f 11/11/4 1/1/4 3/3/4
f 12/12/5 13/13/5 14/14/5
f 10/10/5 12/12/5 14/14/5
f 4/4/5 10/10/5 14/14/5
f 15/15/5 4/4/5 14/14/5
f 16/16/5 4/4/5 15/15/5
f 14/14/6 7/7/6 11/11/6
f 7/7/6 9/9/6 11/11/6
f 5/5/7 13/13/7 6/6/7
f 6/6/7 13/13/7 12/12/7
f 5/5/8 7/7/8 14/14/8
f 5/5/8 14/14/8 13/13/8
f 10/10/9 18/17/9 12/12/9
f 22/18/9 19/19/9 21/20/9
f 24/21/9 8/8/9 6/6/9
f 10/10/9 17/22/9 18/17/9
f 22/18/9 20/23/9 19/19/9
f 24/21/9 23/24/9 8/8/9
usemtl panel
f 19/25/9 18/26/9 17/22/9
f 23/27/9 22/28/9 21/29/9
f 19/25/9 20/30/9 18/26/9
f 23/27/9 24/31/9 22/28/9
